<svg width="24" height="23" viewBox="0 0 24 23" fill="none" xmlns="http://www.w3.org/2000/svg">
<path d="M1.87988 6.28L1.52633 5.92645L1.17278 6.28L1.52633 6.63355L1.87988 6.28ZM22.4999 8.92C22.4999 9.19614 22.7237 9.42 22.9999 9.42C23.276 9.42 23.4999 9.19614 23.4999 8.92H22.4999ZM6.80633 0.646447L1.52633 5.92645L2.23344 6.63355L7.51344 1.35355L6.80633 0.646447ZM1.52633 6.63355L6.80633 11.9136L7.51344 11.2064L2.23344 5.92645L1.52633 6.63355ZM1.87988 6.78H20.9999V5.78H1.87988V6.78ZM22.4999 8.28V8.92H23.4999V8.28H22.4999ZM20.9999 6.78C21.8283 6.78 22.4999 7.45157 22.4999 8.28H23.4999C23.4999 6.89929 22.3806 5.78 20.9999 5.78V6.78Z" fill="black"/>
<path d="M23 16.8401L23.357 16.49L23.7002 16.8401L23.357 17.1901L23 16.8401ZM3 16.8401L3 16.3401L3 16.8401ZM0.500002 14.2001C0.500002 13.9239 0.72386 13.7001 1 13.7001C1.27614 13.7001 1.5 13.9239 1.5 14.2001L0.500002 14.2001ZM18.1806 11.21L23.357 16.49L22.643 17.1901L17.4665 11.9101L18.1806 11.21ZM23.357 17.1901L18.1806 22.4701L17.4665 21.77L22.643 16.49L23.357 17.1901ZM23 17.3401L3 17.3401L3 16.3401L23 16.3401L23 17.3401ZM0.500002 14.8401L0.500002 14.2001L1.5 14.2001L1.5 14.8401L0.500002 14.8401ZM3 17.3401C1.61929 17.3401 0.500002 16.2208 0.500002 14.8401L1.5 14.8401C1.5 15.6685 2.17157 16.3401 3 16.3401L3 17.3401Z" fill="black"/>
</svg>
