<svg width="419" height="619" viewBox="0 0 419 619" fill="none" xmlns="http://www.w3.org/2000/svg">
<g filter="url(#filter0_d_143_107)">
<path d="M43.5475 297.409L33.5566 269.713C36.2387 275.011 39.9266 277.425 45.559 277.626L182.145 283.662C189.789 283.997 192.605 294.19 196.427 304.182L205.077 327.184C205.01 327.184 205.144 327.117 205.077 327.184C202.797 322.49 200.048 319.405 195.69 319.204L59.1036 313.169C51.4597 312.9 47.7047 307.804 43.5475 297.409Z" fill="#1F0070"/>
<path d="M203.133 477.87C203.334 477.2 203.535 476.596 203.736 475.925C201.255 466.738 198.975 457.484 196.763 448.162L99.3355 450.308C93.703 450.442 89.814 448.296 86.7966 443.2L98.5979 470.158C103.426 480.217 107.516 485.046 115.16 484.912L205.547 482.9C205.547 482.833 205.48 482.699 205.48 482.632C203.803 481.894 202.596 480.016 203.133 477.87Z" fill="#1F0070"/>
<path d="M150.765 155.643L142.115 132.641C138.293 122.716 135.477 112.455 127.833 112.12L39.4574 108.164C39.0551 108.365 38.6528 108.566 38.2505 108.767C38.2505 108.767 38.2505 108.767 38.2505 108.834C39.5915 108.834 40.9996 108.901 42.3407 108.901C47.6378 109.102 47.4367 116.479 42.3407 117.016C41.9384 117.083 41.5361 117.083 41.1337 117.15C42.9442 118.96 42.3407 122.917 39.3904 124.124C41.9384 127.41 44.8887 130.428 47.772 133.446C50.1188 133.647 52.4656 134.049 54.8125 134.519C58.098 135.256 58.9027 140.42 55.7512 141.962C55.4159 142.096 55.0807 142.298 54.7454 142.432C54.8795 142.633 55.0136 142.901 55.1477 143.102C55.2818 143.371 55.3489 143.572 55.483 143.773L141.31 147.595C145.736 147.864 148.485 150.948 150.765 155.643C150.765 155.643 150.698 155.643 150.765 155.643C150.832 155.643 150.765 155.643 150.765 155.643Z" fill="#1F0070"/>
<path d="M405.564 91.264L257.848 594.087C257.646 594.825 257.311 595.495 256.976 596.166L256.507 597.038C255.501 598.781 253.958 600.189 252.081 600.927C250.941 601.396 249.667 601.665 248.46 601.665L176.714 602C176.245 602 175.775 602 175.373 601.933L173.16 601.598C171.216 601.329 169.472 600.391 168.064 599.049C167.058 598.111 166.321 596.903 165.919 595.629L165.583 594.623L6.73586 86.7709C6.60175 86.4356 6.5347 86.0333 6.46765 85.6309L6.06533 82.8814C5.86418 81.4731 6.13239 79.9978 6.80291 78.7236C7.54049 77.2483 8.81449 76.1083 10.3567 75.5047L12.6365 74.5659C13.4411 74.2306 14.3128 74.0964 15.2515 74.0964H75.0624L78.8844 74.2306C80.3595 74.2976 81.7676 74.7 83.0416 75.3706C84.6509 76.3094 85.9249 77.7177 86.6625 79.3942L87.7353 81.7414C87.8694 82.0767 88.0035 82.412 88.1376 82.7473L214.532 488.868C214.733 489.539 215.068 490.21 215.47 490.813C216.543 492.423 218.152 493.63 220.03 494.099L220.298 494.166C222.779 494.837 225.394 494.166 227.339 492.49L228.411 491.551C229.484 490.612 230.222 489.472 230.691 488.131L238.603 464.659L245.979 438.707L252.215 412.553L257.512 386.332L262.139 359.843L281.852 226.861L286.546 200.372L291.977 174.151L298.414 147.998L305.991 122.112L314.842 96.6289L319.871 83.9544L321.212 80.8025L322.486 77.986L326.442 74.7L333.349 74.1635H377.067L397.518 74.7C401.273 74.767 404.625 77.0471 406.168 80.4672C407.039 82.4791 407.241 84.6921 406.704 86.838L405.564 91.264Z" fill="#9E66EE"/>
<path d="M152.575 154.972L139.567 126.136C141.444 132.171 140.17 136.798 135.745 141.023L28.1924 244.834C22.1577 250.668 27.656 260.66 32.1485 271.189L42.6758 295.398C42.7428 295.398 42.6087 295.398 42.6758 295.398C40.9324 290.1 40.7983 285.674 44.285 282.388L151.904 178.577C157.872 172.743 157.067 166.037 152.575 154.972Z" fill="#3700B3"/>
<path d="M204.876 321.283L191.868 292.447C193.745 298.482 192.471 303.109 188.046 307.334L80.4937 411.145C74.459 416.979 79.9573 426.971 84.4498 437.5L94.977 461.709C95.0441 461.709 94.91 461.709 94.977 461.709C93.2337 456.411 93.0996 451.985 96.5863 448.699L204.206 344.888C210.173 339.054 209.369 332.348 204.876 321.283Z" fill="#3700B3"/>
<path d="M38.3177 61.3548C54.9821 61.3548 68.4913 47.8439 68.4913 31.1774C68.4913 14.5109 54.9821 1 38.3177 1C21.6532 1 8.14404 14.5109 8.14404 31.1774C8.14404 47.8439 21.6532 61.3548 38.3177 61.3548Z" fill="#3700B3"/>
</g>
<defs>
<filter id="filter0_d_143_107" x="0" y="0" width="419" height="619" filterUnits="userSpaceOnUse" color-interpolation-filters="sRGB">
<feFlood flood-opacity="0" result="BackgroundImageFix"/>
<feColorMatrix in="SourceAlpha" type="matrix" values="0 0 0 0 0 0 0 0 0 0 0 0 0 0 0 0 0 0 127 0" result="hardAlpha"/>
<feOffset dx="3" dy="8"/>
<feGaussianBlur stdDeviation="4.5"/>
<feComposite in2="hardAlpha" operator="out"/>
<feColorMatrix type="matrix" values="0 0 0 0 0 0 0 0 0 0 0 0 0 0 0 0 0 0 0.25 0"/>
<feBlend mode="normal" in2="BackgroundImageFix" result="effect1_dropShadow_143_107"/>
<feBlend mode="normal" in="SourceGraphic" in2="effect1_dropShadow_143_107" result="shape"/>
</filter>
</defs>
</svg>
